<svg width="35" height="118" viewBox="0 0 35 118" fill="none" xmlns="http://www.w3.org/2000/svg">
<path fill-rule="evenodd" clip-rule="evenodd" d="M-0.00012207 59.1765H17.5H34.9999L34.9999 117.324C33.7972 113.959 27.3274 110.351 20.271 106.416C10.6775 101.066 -0.000102997 86.7727 -0.000102997 80.0008L-0.00012207 59.1765Z" fill="#EEDCF1"/>
<path fill-rule="evenodd" clip-rule="evenodd" d="M-0.00012207 59.1765H17.5H34.9999L34.9999 117.324C33.7972 113.959 27.3274 110.351 20.271 106.416C10.6775 101.066 -0.000102997 86.7727 -0.000102997 80.0008L-0.00012207 59.1765Z" fill="#EEDCF1"/>
<path fill-rule="evenodd" clip-rule="evenodd" d="M-0.00012207 59.1765H17.5H34.9999L35 0.176506C33.7973 3.54206 27.3275 7.1501 20.2711 11.0852C10.6776 16.4352 -1.52588e-05 30.7281 -1.52588e-05 37.5L-0.00012207 59.1765Z" fill="#EEDCF1"/>
</svg>
