<svg width="38" height="38" viewBox="0 0 38 38" fill="none" xmlns="http://www.w3.org/2000/svg">
<path d="M15 1H9C4.58172 1 1 4.58172 1 9V19V29C1 33.4183 4.58172 37 9 37H15V19V1Z" fill="#EEDCF1"/>
<path d="M9 2H29V0H9V2ZM36 9V29H38V9H36ZM29 36H9V38H29V36ZM9 36C5.13401 36 2 32.866 2 29H0C0 33.9706 4.02944 38 9 38V36ZM36 29C36 32.866 32.866 36 29 36V38C33.9706 38 38 33.9706 38 29H36ZM29 2C32.866 2 36 5.13401 36 9H38C38 4.02944 33.9706 0 29 0V2ZM9 0C4.02944 0 0 4.02944 0 9H2C2 5.13401 5.13401 2 9 2V0ZM2 29V19H0V29H2ZM2 19V9H0V19H2ZM16 37V19H14V37H16ZM16 19V1H14V19H16ZM29 0H15V2H29V0ZM15 38H29V36H15V38ZM15 0H9V2H15V0ZM9 38H15V36H9V38Z" fill="#CB7AE0"/>
</svg>
